HIERARCHY
ROOT Hips
{
	OFFSET 0.00000 0.00000 0.00000
	CHANNELS 6 Xposition Yposition Zposition Zrotation Yrotation Xrotation 
	JOINT LHipJoint
	{
		OFFSET 0 0 0
		CHANNELS 3 Zrotation Yrotation Xrotation
		JOINT LeftUpLeg
		{
			OFFSET 1.76014 -1.80163 0.38499
			CHANNELS 3 Zrotation Yrotation Xrotation
			JOINT LeftLeg
			{
				OFFSET 2.46817 -6.78126 0.00000
				CHANNELS 3 Zrotation Yrotation Xrotation
				JOINT LeftFoot
				{
					OFFSET 2.79348 -7.67503 0.00000
					CHANNELS 3 Zrotation Yrotation Xrotation
					JOINT LeftToeBase
					{
						OFFSET 0.09421 -0.25885 1.91403
						CHANNELS 3 Zrotation Yrotation Xrotation
						End Site
						{
							OFFSET 0.00000 -0.00000 0.97975
						}
					}
				}
			}
		}
	}
	JOINT RHipJoint
	{
		OFFSET 0 0 0
		CHANNELS 3 Zrotation Yrotation Xrotation
		JOINT RightUpLeg
		{
			OFFSET -1.77926 -1.80163 0.38499
			CHANNELS 3 Zrotation Yrotation Xrotation
			JOINT RightLeg
			{
				OFFSET -2.51996 -6.92353 0.00000
				CHANNELS 3 Zrotation Yrotation Xrotation
				JOINT RightFoot
				{
					OFFSET -2.76109 -7.58603 0.00000
					CHANNELS 3 Zrotation Yrotation Xrotation
					JOINT RightToeBase
					{
						OFFSET -0.08067 -0.22163 1.86812
						CHANNELS 3 Zrotation Yrotation Xrotation
						End Site
						{
							OFFSET -0.00000 -0.00000 0.95558
						}
					}
				}
			}
		}
	}
	JOINT LowerBack
	{
		OFFSET 0 0 0
		CHANNELS 3 Zrotation Yrotation Xrotation
		JOINT Spine
		{
			OFFSET 0.05537 1.92033 -0.03713
			CHANNELS 3 Zrotation Yrotation Xrotation
			JOINT Spine1
			{
				OFFSET 0.04452 1.90073 0.10860
				CHANNELS 3 Zrotation Yrotation Xrotation
				JOINT Neck
				{
					OFFSET 0 0 0
					CHANNELS 3 Zrotation Yrotation Xrotation
					JOINT Neck1
					{
						OFFSET 0.00903 1.74649 0.02074
						CHANNELS 3 Zrotation Yrotation Xrotation
						JOINT Head
						{
							OFFSET -0.08608 1.67844 -0.12081
							CHANNELS 3 Zrotation Yrotation Xrotation
							End Site
							{
								OFFSET -0.03521 1.83380 -0.05059
							}
						}
					}
				}
				JOINT LeftShoulder
				{
					OFFSET 0 0 0
					CHANNELS 3 Zrotation Yrotation Xrotation
					JOINT LeftArm
					{
						OFFSET 3.28197 0.84325 -0.19106
						CHANNELS 3 Zrotation Yrotation Xrotation
						JOINT LeftForeArm
						{
							OFFSET 5.24318 -0.00000 -0.00000
							CHANNELS 3 Zrotation Yrotation Xrotation
							JOINT LeftHand
							{
								OFFSET 2.98999 -0.00000 0.00000
								CHANNELS 3 Zrotation Yrotation Xrotation
								JOINT LeftFingerBase
								{
									OFFSET 0 0 0
									CHANNELS 3 Zrotation Yrotation Xrotation
									JOINT LeftHandIndex1
									{
										OFFSET 0.72674 -0.00000 0.00000
										CHANNELS 3 Zrotation Yrotation Xrotation
										End Site
										{
											OFFSET 0.58592 -0.00000 0.00000
										}
									}
								}
								JOINT LThumb
								{
									OFFSET 0 0 0
									CHANNELS 3 Zrotation Yrotation Xrotation
									End Site
									{
										OFFSET 0.59487 -0.00000 0.59487
									}
								}
							}
						}
					}
				}
				JOINT RightShoulder
				{
					OFFSET 0 0 0
					CHANNELS 3 Zrotation Yrotation Xrotation
					JOINT RightArm
					{
						OFFSET -3.30963 0.78377 0.14264
						CHANNELS 3 Zrotation Yrotation Xrotation
						JOINT RightForeArm
						{
							OFFSET -5.37045 -0.00000 0.00000
							CHANNELS 3 Zrotation Yrotation Xrotation
							JOINT RightHand
							{
								OFFSET -2.92792 -0.00000 0.00000
								CHANNELS 3 Zrotation Yrotation Xrotation
								JOINT RightFingerBase
								{
									OFFSET 0 0 0
									CHANNELS 3 Zrotation Yrotation Xrotation
									JOINT RightHandIndex1
									{
										OFFSET -0.78450 -0.00000 0.00000
										CHANNELS 3 Zrotation Yrotation Xrotation
										End Site
										{
											OFFSET -0.63248 -0.00000 0.00000
										}
									}
								}
								JOINT RThumb
								{
									OFFSET 0 0 0
									CHANNELS 3 Zrotation Yrotation Xrotation
									End Site
									{
										OFFSET -0.64214 -0.00000 0.64214
									}
								}
							}
						}
					}
				}
			}
		}
	}
}
MOTION
Frames: 13
Frame Time: .0083333
0.7849 18.1683 0.3883 2.5525 9.4251 26.5068 0.0000 0.0000 0.0000 -12.0798 -27.1942 -27.7247 0.7649 5.5852 15.5855 -0.2159 8.3529 -4.7298 0.7750 -5.6210 -15.6887 0.0000 0.0000 0.0000 6.7699 22.4512 -29.8506 -1.2897 -7.1958 20.2967 0.0233 -20.1032 -28.2368 -1.1737 -6.8764 19.3499 9.2573 -1.2826 15.1621 5.8355 0.7663 -2.7506 1.0265 -0.0099 -11.6381 1.2524 -3.2624 -10.6495 -12.4481 -5.1890 -9.4075 -4.4842 -2.6014 -1.6114 -0.0000 0.0000 0.0000 -91.4394 15.2887 -29.5667 33.9106 -44.0184 -14.0509 -0.0000 0.0000 -41.8073 38.0526 33.6555 23.4516 -7.1250 0.0000 -0.0000 8.6264 70.0212 5.1730 -0.0000 0.0000 0.0000 81.4903 -11.2530 -52.5946 -45.4392 50.9818 -22.5795 0.0000 0.0000 157.9980 -11.5767 8.8547 -1.8060 7.1250 -0.0000 -0.0000 11.0071 -21.0122 6.4463
0.7804 18.1692 0.3923 2.4888 9.3941 26.4988 0.0000 0.0000 0.0000 -11.9939 -27.2256 -27.6077 0.7535 5.5442 15.4673 -0.2245 8.5062 -4.7616 0.7930 -5.6843 -15.8711 0.0000 0.0000 0.0000 6.8132 22.6032 -29.7269 -1.2712 -7.1461 20.1490 0.0262 -20.1900 -28.3360 -1.1965 -6.9407 19.5399 9.2942 -1.2682 14.9431 5.8422 0.7629 -2.7635 1.0096 -0.0111 -11.5234 1.1545 -3.2510 -10.6356 -12.3409 -5.1581 -9.4131 -4.4244 -2.5822 -1.6066 -0.0000 0.0000 0.0000 -91.5518 15.1963 -29.5301 33.7345 -43.8871 -13.9287 -0.0000 0.0000 -41.6429 37.7405 33.6621 23.2209 -7.1250 0.0000 -0.0000 8.1040 69.9285 4.8415 -0.0000 0.0000 0.0000 81.5885 -11.1800 -52.3122 -45.3517 50.9396 -22.5115 0.0000 0.0000 157.8110 -11.3186 8.6427 -1.7228 7.1250 -0.0000 -0.0000 11.2028 -21.2339 6.5080
0.7780 18.1736 0.4034 2.4406 9.3415 26.3955 0.0000 0.0000 0.0000 -11.9831 -27.2895 -27.3036 0.7398 5.4948 15.3254 -0.2375 8.7402 -4.8539 0.7788 -5.6343 -15.7269 0.0000 0.0000 0.0000 6.9061 22.6742 -29.4654 -1.2546 -7.1009 20.0146 -0.0363 -19.9918 -28.5293 -1.2911 -7.1995 20.3078 9.2875 -1.2601 14.7717 5.8540 0.7496 -2.7720 1.0259 -0.0144 -11.4324 1.1716 -3.2407 -10.6123 -12.3976 -5.1399 -9.3253 -4.4477 -2.5759 -1.5819 -0.0000 0.0000 0.0000 -91.7316 15.2243 -29.4460 33.6961 -43.8583 -13.9021 -0.0000 0.0000 -41.6296 37.6509 33.7280 23.1897 -7.1250 0.0000 -0.0000 7.9311 69.9714 4.7453 -0.0000 0.0000 0.0000 81.6861 -11.1994 -52.0252 -45.3857 50.9561 -22.5379 0.0000 0.0000 157.6790 -10.9881 8.6248 -1.6678 7.1250 -0.0000 -0.0000 11.4400 -21.2640 6.6433
0.7791 18.1784 0.4164 2.5039 9.2648 26.3042 0.0000 0.0000 0.0000 -12.1097 -27.4286 -26.9476 0.7252 5.4414 15.1718 -0.2535 9.0184 -4.9555 0.7619 -5.5744 -15.5543 0.0000 0.0000 0.0000 6.8963 22.6433 -29.2071 -1.2395 -7.0596 19.8921 -0.1193 -19.6974 -28.7439 -1.3857 -7.4482 21.0501 9.2169 -1.2486 14.5874 5.8351 0.7245 -2.7894 1.0464 -0.0206 -11.3437 1.3005 -3.2258 -10.5282 -12.9081 -5.1849 -9.4265 -4.2125 -2.5760 -1.4256 -0.0000 0.0000 0.0000 -91.9075 15.2693 -29.3587 33.6420 -43.8177 -13.8646 -0.0000 0.0000 -41.5832 37.6225 33.7715 23.1919 -7.1250 0.0000 -0.0000 7.8675 70.0095 4.7138 -0.0000 0.0000 0.0000 81.7508 -11.1789 -51.8764 -45.3875 50.9569 -22.5393 0.0000 0.0000 157.7040 -10.9940 8.6923 -1.6817 7.1250 -0.0000 -0.0000 11.4318 -21.1965 6.6562
0.7771 18.1823 0.4240 2.5359 9.1307 26.2308 0.0000 0.0000 0.0000 -12.1922 -27.5036 -26.6602 0.7099 5.3849 15.0097 -0.2705 9.3012 -5.0468 0.7696 -5.6019 -15.6336 0.0000 0.0000 0.0000 6.9060 22.6461 -29.0375 -1.2251 -7.0201 19.7750 -0.0276 -19.9967 -28.4708 -1.2677 -7.1366 20.1207 9.1400 -1.2174 14.4840 5.7950 0.7365 -2.8333 1.0411 -0.0122 -11.3307 1.4037 -3.1973 -10.4641 -13.0313 -5.1594 -9.3781 -4.2659 -2.5652 -1.4231 -0.0000 0.0000 0.0000 -92.0142 15.3066 -29.2923 33.5303 -43.7337 -13.7873 -0.0000 0.0000 -41.5109 37.6220 33.8547 23.2366 -7.1250 0.0000 -0.0000 7.8347 70.0996 4.7098 -0.0000 0.0000 0.0000 81.8856 -11.1297 -51.8032 -45.4444 50.9843 -22.5835 0.0000 0.0000 157.8830 -11.1816 8.6508 -1.7030 7.1250 -0.0000 -0.0000 11.3003 -21.2310 6.5676
0.7728 18.1849 0.4286 2.5198 8.9932 26.1234 0.0000 0.0000 0.0000 -12.2536 -27.4714 -26.3871 0.6960 5.3328 14.8603 -0.2835 9.5001 -5.0336 0.8040 -5.7228 -15.9823 0.0000 0.0000 0.0000 6.9559 22.7261 -28.8524 -1.2134 -6.9878 19.6791 0.0421 -20.2437 -28.2911 -1.1807 -6.8961 19.4080 9.1102 -1.1796 14.4304 5.7356 0.7693 -2.8602 0.9837 0.0021 -11.3264 1.4465 -3.1906 -10.2964 -13.0158 -5.1640 -9.4370 -4.2637 -2.5602 -1.4680 -0.0000 0.0000 0.0000 -92.0396 15.3012 -29.1347 33.4056 -43.6395 -13.7012 -0.0000 0.0000 -41.5236 37.5521 33.8455 23.1792 -7.1250 0.0000 -0.0000 7.7222 70.0671 4.6363 -0.0000 0.0000 0.0000 82.0964 -11.1164 -51.6298 -45.4831 51.0030 -22.6136 0.0000 0.0000 158.0010 -11.0339 8.4434 -1.6400 7.1250 -0.0000 -0.0000 11.4177 -21.4433 6.5825
0.7692 18.1861 0.4345 2.5334 8.8771 25.9827 0.0000 0.0000 0.0000 -12.3386 -27.5087 -26.0525 0.6826 5.2824 14.7159 -0.2973 9.7099 -5.0352 0.8149 -5.7604 -16.0908 0.0000 0.0000 0.0000 6.9918 22.7784 -28.6169 -1.2050 -6.9644 19.6099 0.0102 -20.1024 -28.3340 -1.2315 -7.0377 19.8270 9.0515 -1.1606 14.3872 5.6807 0.7704 -2.8554 0.9538 0.0049 -11.2935 1.4730 -3.1950 -10.2456 -13.0018 -5.1716 -9.4281 -4.2626 -2.5635 -1.4744 0.0000 -0.0000 0.0000 -92.0825 15.2290 -29.0420 33.2565 -43.5262 -13.5984 -0.0000 0.0000 -41.5134 37.2705 33.6775 22.8787 -7.1250 0.0000 -0.0000 7.3239 69.7950 4.3517 0.0000 -0.0000 0.0000 82.3032 -11.0924 -51.3797 -45.5874 51.0530 -22.6947 0.0000 0.0000 158.0970 -10.8600 8.3798 -1.6015 7.1250 -0.0000 -0.0000 11.5459 -21.5128 6.6408
0.7644 18.1868 0.4401 2.5017 8.7716 25.8544 0.0000 0.0000 0.0000 -12.3323 -27.5999 -25.7407 0.6691 5.2311 14.5689 -0.3154 9.9881 -5.1034 0.7894 -5.6718 -15.8352 0.0000 0.0000 0.0000 7.0625 22.8734 -28.4159 -1.2001 -6.9506 19.5690 -0.0558 -19.8690 -28.5060 -1.3211 -7.2796 20.5464 9.0200 -1.1500 14.3402 5.6501 0.7677 -2.8500 0.9367 0.0052 -11.2587 1.5403 -3.1766 -10.4168 -13.0987 -5.1292 -9.2104 -4.3085 -2.5589 -1.3822 0.0000 0.0000 0.0000 -92.1980 15.1890 -28.9737 33.2017 -43.4845 -13.5607 -0.0000 0.0000 -41.6647 37.3148 33.6429 22.8930 -7.1250 0.0000 -0.0000 7.4100 69.7716 4.3992 0.0000 0.0000 0.0000 82.4600 -11.0314 -51.0919 -45.6974 51.1056 -22.7802 0.0000 0.0000 158.2790 -10.7860 8.5243 -1.6175 7.1250 -0.0000 -0.0000 11.5902 -21.3713 6.7053
0.7596 18.1894 0.4461 2.5574 8.6273 25.6835 0.0000 0.0000 0.0000 -12.4792 -27.6447 -25.3674 0.6566 5.1828 14.4306 -0.3294 10.2092 -5.2638 0.7324 -5.4677 -15.2476 0.0000 0.0000 0.0000 7.0506 22.9579 -28.1626 -1.1971 -6.9423 19.5446 -0.1208 -19.6630 -28.7094 -1.4322 -7.5669 21.4060 8.9178 -1.1311 14.3493 5.5918 0.7679 -2.8462 0.9287 0.0094 -11.2580 1.5524 -3.1625 -10.4965 -13.1593 -5.0878 -8.9993 -4.3318 -2.5497 -1.3050 0.0000 0.0000 0.0000 -92.3218 15.2010 -28.8248 33.2335 -43.5087 -13.5825 -0.0000 0.0000 -42.0550 37.7918 33.6552 23.2556 -7.1250 0.0000 -0.0000 8.1917 69.9373 4.8957 0.0000 0.0000 0.0000 82.5960 -10.9748 -50.8549 -45.7651 51.1379 -22.8330 0.0000 0.0000 158.5480 -10.7807 8.6860 -1.6471 7.1250 -0.0000 -0.0000 11.5844 -21.2104 6.7450
0.7555 18.1918 0.4488 2.6470 8.5258 25.6155 0.0000 0.0000 0.0000 -12.6312 -27.6510 -25.1459 0.6435 5.1318 14.2848 -0.3394 10.3549 -5.2888 0.7236 -5.4356 -15.1553 0.0000 0.0000 0.0000 6.9920 22.9695 -28.0683 -1.1969 -6.9416 19.5426 -0.0286 -19.9843 -28.4617 -1.2708 -7.1450 20.1458 8.7860 -1.1124 14.2430 5.5512 0.7510 -2.8675 0.9594 0.0089 -11.2189 1.4932 -3.1538 -10.4333 -13.1546 -5.0631 -8.9313 -4.3189 -2.5360 -1.2917 -0.0000 0.0000 0.0000 -92.4712 15.1782 -28.7409 33.2622 -43.5306 -13.6023 -0.0000 0.0000 -42.2667 38.0370 33.6049 23.4121 -7.1250 0.0000 -0.0000 8.6178 69.9611 5.1562 -0.0000 0.0000 0.0000 82.6854 -10.8768 -50.6702 -45.7825 51.1461 -22.8465 0.0000 0.0000 158.9360 -10.6910 8.7356 -1.6424 7.1250 -0.0000 -0.0000 11.6456 -21.1642 6.7946
0.7496 18.1924 0.4478 2.6763 8.4932 25.6907 0.0000 0.0000 0.0000 -12.5748 -27.7856 -25.1165 0.6306 5.0813 14.1406 -0.3546 10.5639 -5.2591 0.7406 -5.4977 -15.3336 0.0000 0.0000 0.0000 6.9350 23.0293 -28.1430 -1.1951 -6.9367 19.5280 0.0402 -20.2228 -28.2763 -1.1767 -6.8850 19.3752 8.7166 -1.0988 13.9765 5.5346 0.7225 -2.9118 0.9823 0.0009 -11.1123 1.4471 -3.1346 -10.4270 -13.1167 -5.0260 -8.8962 -4.2992 -2.5173 -1.2780 0.0000 -0.0000 0.0000 -92.5778 15.1212 -28.6317 33.2496 -43.5210 -13.5937 -0.0000 0.0000 -42.4342 38.1929 33.5963 23.5245 -7.1250 0.0000 -0.0000 8.8815 70.0016 5.3229 0.0000 -0.0000 0.0000 82.7944 -10.7135 -50.5922 -45.7402 51.1260 -22.8136 0.0000 0.0000 159.3350 -10.7535 8.6964 -1.6448 7.1250 -0.0000 -0.0000 11.6032 -21.2010 6.7589
0.7446 18.1924 0.4486 2.7045 8.4066 25.7124 0.0000 0.0000 0.0000 -12.5522 -27.9162 -25.0200 0.6206 5.0414 14.0266 -0.3712 10.8015 -5.3494 0.6777 -5.2636 -14.6620 0.0000 0.0000 0.0000 6.8580 23.1420 -28.1252 -1.1903 -6.9233 19.4882 -0.0035 -20.0761 -28.4004 -1.2744 -7.1546 20.1742 8.6210 -1.0743 13.7886 5.5014 0.7139 -2.9647 0.9989 0.0019 -11.0604 1.4331 -3.1124 -10.3647 -13.0849 -4.9935 -8.8941 -4.2851 -2.4984 -1.2840 0.0000 0.0000 0.0000 -92.6474 15.1138 -28.5479 33.1396 -43.4370 -13.5179 -0.0000 0.0000 -42.5271 38.1594 33.4930 23.4424 -7.1250 0.0000 -0.0000 8.8602 69.8783 5.2856 0.0000 0.0000 0.0000 82.9296 -10.5865 -50.5337 -45.6467 51.0814 -22.7408 0.0000 0.0000 159.6590 -10.9448 8.5362 -1.6442 7.1250 -0.0000 -0.0000 11.4760 -21.3539 6.6412
0.7402 18.1936 0.4539 2.6694 8.3197 25.6085 0.0000 0.0000 0.0000 -12.5423 -27.9704 -24.8116 0.6166 5.0253 13.9806 -0.3858 11.0012 -5.3893 0.6856 -5.2937 -14.7481 0.0000 0.0000 0.0000 6.9203 23.2414 -27.9397 -1.1800 -6.8944 19.4029 -0.0026 -20.1013 -28.4285 -1.2918 -7.2015 20.3136 8.6149 -1.0735 13.7140 5.4576 0.7010 -2.9867 0.9562 -0.0057 -11.0407 1.4629 -3.0798 -10.3908 -13.0894 -4.9394 -8.7923 -4.2919 -2.4773 -1.2462 0.0000 0.0000 0.0000 -92.7020 15.0642 -28.6595 32.9826 -43.3166 -13.4101 -0.0000 0.0000 -42.3624 37.6747 33.4191 23.0394 -7.1250 0.0000 -0.0000 8.0836 69.6431 4.7776 0.0000 0.0000 0.0000 83.0783 -10.4494 -50.4653 -45.5440 51.0322 -22.6609 0.0000 0.0000 160.0460 -11.2657 8.2573 -1.6387 7.1250 -0.0000 -0.0000 11.2626 -21.6209 6.4431
